<mxfile host="app.diagrams.net" modified="2024-05-13T07:41:25.867Z" agent="Mozilla/5.0 (Windows NT 10.0; Win64; x64) AppleWebKit/537.36 (KHTML, like Gecko) Chrome/124.0.0.0 Safari/537.36" etag="jCpKPqu15i02hX23TspH" version="24.4.0" type="device">
  <diagram id="R2lEEEUBdFMjLlhIrx00" name="Page-1">
    <mxGraphModel dx="1006" dy="493" grid="1" gridSize="8" guides="1" tooltips="1" connect="1" arrows="1" fold="1" page="1" pageScale="1" pageWidth="850" pageHeight="1100" math="0" shadow="0" extFonts="Permanent Marker^https://fonts.googleapis.com/css?family=Permanent+Marker">
      <root>
        <mxCell id="0" />
        <mxCell id="1" parent="0" />
        <mxCell id="hrWA55zGwtSvdRGhzl9p-38" value="" style="edgeStyle=orthogonalEdgeStyle;rounded=0;orthogonalLoop=1;jettySize=auto;html=1;exitX=0.439;exitY=1.017;exitDx=0;exitDy=0;exitPerimeter=0;" edge="1" parent="1" source="hrWA55zGwtSvdRGhzl9p-1" target="hrWA55zGwtSvdRGhzl9p-36">
          <mxGeometry relative="1" as="geometry">
            <Array as="points">
              <mxPoint x="632" y="371" />
            </Array>
          </mxGeometry>
        </mxCell>
        <mxCell id="hrWA55zGwtSvdRGhzl9p-39" style="edgeStyle=orthogonalEdgeStyle;rounded=0;orthogonalLoop=1;jettySize=auto;html=1;exitX=1;exitY=0.5;exitDx=0;exitDy=0;" edge="1" parent="1" source="hrWA55zGwtSvdRGhzl9p-1" target="hrWA55zGwtSvdRGhzl9p-37">
          <mxGeometry relative="1" as="geometry" />
        </mxCell>
        <mxCell id="hrWA55zGwtSvdRGhzl9p-41" style="edgeStyle=orthogonalEdgeStyle;rounded=0;orthogonalLoop=1;jettySize=auto;html=1;exitX=0;exitY=0.5;exitDx=0;exitDy=0;entryX=0;entryY=0;entryDx=0;entryDy=0;" edge="1" parent="1" source="hrWA55zGwtSvdRGhzl9p-1" target="hrWA55zGwtSvdRGhzl9p-35">
          <mxGeometry relative="1" as="geometry">
            <Array as="points">
              <mxPoint x="556" y="340" />
              <mxPoint x="556" y="392" />
            </Array>
          </mxGeometry>
        </mxCell>
        <mxCell id="hrWA55zGwtSvdRGhzl9p-1" value="&lt;font style=&quot;font-size: 15px;&quot;&gt;Doctors&lt;/font&gt;" style="rounded=0;whiteSpace=wrap;html=1;" vertex="1" parent="1">
          <mxGeometry x="592" y="310" width="120" height="60" as="geometry" />
        </mxCell>
        <mxCell id="hrWA55zGwtSvdRGhzl9p-28" style="edgeStyle=orthogonalEdgeStyle;rounded=0;orthogonalLoop=1;jettySize=auto;html=1;exitX=0;exitY=1;exitDx=0;exitDy=0;entryX=0.5;entryY=0;entryDx=0;entryDy=0;" edge="1" parent="1" source="hrWA55zGwtSvdRGhzl9p-2" target="hrWA55zGwtSvdRGhzl9p-22">
          <mxGeometry relative="1" as="geometry">
            <Array as="points">
              <mxPoint x="144" y="388" />
              <mxPoint x="84" y="388" />
            </Array>
          </mxGeometry>
        </mxCell>
        <mxCell id="hrWA55zGwtSvdRGhzl9p-29" value="" style="edgeStyle=orthogonalEdgeStyle;rounded=0;orthogonalLoop=1;jettySize=auto;html=1;" edge="1" parent="1" source="hrWA55zGwtSvdRGhzl9p-2" target="hrWA55zGwtSvdRGhzl9p-23">
          <mxGeometry relative="1" as="geometry" />
        </mxCell>
        <mxCell id="hrWA55zGwtSvdRGhzl9p-32" value="" style="edgeStyle=orthogonalEdgeStyle;rounded=0;orthogonalLoop=1;jettySize=auto;html=1;" edge="1" parent="1" source="hrWA55zGwtSvdRGhzl9p-2" target="hrWA55zGwtSvdRGhzl9p-25">
          <mxGeometry relative="1" as="geometry">
            <Array as="points">
              <mxPoint x="272" y="348" />
              <mxPoint x="272" y="348" />
            </Array>
          </mxGeometry>
        </mxCell>
        <mxCell id="hrWA55zGwtSvdRGhzl9p-33" style="edgeStyle=orthogonalEdgeStyle;rounded=0;orthogonalLoop=1;jettySize=auto;html=1;exitX=1;exitY=1;exitDx=0;exitDy=0;entryX=0.5;entryY=0;entryDx=0;entryDy=0;" edge="1" parent="1" source="hrWA55zGwtSvdRGhzl9p-2" target="hrWA55zGwtSvdRGhzl9p-24">
          <mxGeometry relative="1" as="geometry" />
        </mxCell>
        <mxCell id="hrWA55zGwtSvdRGhzl9p-34" value="" style="edgeStyle=orthogonalEdgeStyle;rounded=0;orthogonalLoop=1;jettySize=auto;html=1;" edge="1" parent="1" source="hrWA55zGwtSvdRGhzl9p-2" target="hrWA55zGwtSvdRGhzl9p-21">
          <mxGeometry relative="1" as="geometry" />
        </mxCell>
        <mxCell id="hrWA55zGwtSvdRGhzl9p-49" style="edgeStyle=orthogonalEdgeStyle;rounded=0;orthogonalLoop=1;jettySize=auto;html=1;exitX=0.5;exitY=0;exitDx=0;exitDy=0;" edge="1" parent="1" source="hrWA55zGwtSvdRGhzl9p-2" target="hrWA55zGwtSvdRGhzl9p-48">
          <mxGeometry relative="1" as="geometry" />
        </mxCell>
        <mxCell id="hrWA55zGwtSvdRGhzl9p-2" value="&lt;font style=&quot;font-size: 15px;&quot;&gt;Test&lt;/font&gt;" style="rounded=0;whiteSpace=wrap;html=1;" vertex="1" parent="1">
          <mxGeometry x="144" y="314" width="120" height="60" as="geometry" />
        </mxCell>
        <mxCell id="hrWA55zGwtSvdRGhzl9p-13" style="edgeStyle=orthogonalEdgeStyle;rounded=0;orthogonalLoop=1;jettySize=auto;html=1;entryX=0.5;entryY=1;entryDx=0;entryDy=0;" edge="1" parent="1" source="hrWA55zGwtSvdRGhzl9p-3" target="hrWA55zGwtSvdRGhzl9p-8">
          <mxGeometry relative="1" as="geometry">
            <Array as="points">
              <mxPoint x="252" y="150" />
            </Array>
          </mxGeometry>
        </mxCell>
        <mxCell id="hrWA55zGwtSvdRGhzl9p-16" style="edgeStyle=orthogonalEdgeStyle;rounded=0;orthogonalLoop=1;jettySize=auto;html=1;exitX=1;exitY=0.5;exitDx=0;exitDy=0;entryX=0.5;entryY=1;entryDx=0;entryDy=0;" edge="1" parent="1" source="hrWA55zGwtSvdRGhzl9p-3" target="hrWA55zGwtSvdRGhzl9p-5">
          <mxGeometry relative="1" as="geometry" />
        </mxCell>
        <mxCell id="hrWA55zGwtSvdRGhzl9p-45" style="edgeStyle=orthogonalEdgeStyle;rounded=0;orthogonalLoop=1;jettySize=auto;html=1;exitX=0;exitY=0.75;exitDx=0;exitDy=0;entryX=1;entryY=0.5;entryDx=0;entryDy=0;" edge="1" parent="1" source="hrWA55zGwtSvdRGhzl9p-3" target="hrWA55zGwtSvdRGhzl9p-17">
          <mxGeometry relative="1" as="geometry" />
        </mxCell>
        <mxCell id="hrWA55zGwtSvdRGhzl9p-47" style="edgeStyle=orthogonalEdgeStyle;rounded=0;orthogonalLoop=1;jettySize=auto;html=1;exitX=1;exitY=0.75;exitDx=0;exitDy=0;" edge="1" parent="1" source="hrWA55zGwtSvdRGhzl9p-3" target="hrWA55zGwtSvdRGhzl9p-42">
          <mxGeometry relative="1" as="geometry" />
        </mxCell>
        <mxCell id="hrWA55zGwtSvdRGhzl9p-3" value="&lt;font style=&quot;font-size: 15px;&quot;&gt;Patient&lt;/font&gt;" style="rounded=0;whiteSpace=wrap;html=1;" vertex="1" parent="1">
          <mxGeometry x="345" y="120" width="120" height="60" as="geometry" />
        </mxCell>
        <mxCell id="hrWA55zGwtSvdRGhzl9p-5" value="date_checkedout" style="ellipse;whiteSpace=wrap;html=1;" vertex="1" parent="1">
          <mxGeometry x="480" y="32" width="112" height="56" as="geometry" />
        </mxCell>
        <mxCell id="hrWA55zGwtSvdRGhzl9p-6" value="date_admitted" style="ellipse;whiteSpace=wrap;html=1;" vertex="1" parent="1">
          <mxGeometry x="385" y="8" width="80" height="52" as="geometry" />
        </mxCell>
        <mxCell id="hrWA55zGwtSvdRGhzl9p-7" value="name" style="ellipse;whiteSpace=wrap;html=1;" vertex="1" parent="1">
          <mxGeometry x="280" y="8" width="72" height="56" as="geometry" />
        </mxCell>
        <mxCell id="hrWA55zGwtSvdRGhzl9p-8" value="Reg_no" style="ellipse;whiteSpace=wrap;html=1;" vertex="1" parent="1">
          <mxGeometry x="216" y="80" width="72" height="56" as="geometry" />
        </mxCell>
        <mxCell id="hrWA55zGwtSvdRGhzl9p-12" style="edgeStyle=orthogonalEdgeStyle;rounded=0;orthogonalLoop=1;jettySize=auto;html=1;entryX=0.75;entryY=1.006;entryDx=0;entryDy=0;entryPerimeter=0;exitX=0.5;exitY=0;exitDx=0;exitDy=0;" edge="1" parent="1" source="hrWA55zGwtSvdRGhzl9p-3" target="hrWA55zGwtSvdRGhzl9p-7">
          <mxGeometry relative="1" as="geometry">
            <mxPoint x="416" y="104" as="sourcePoint" />
          </mxGeometry>
        </mxCell>
        <mxCell id="hrWA55zGwtSvdRGhzl9p-15" style="edgeStyle=orthogonalEdgeStyle;rounded=0;orthogonalLoop=1;jettySize=auto;html=1;exitX=0.75;exitY=0;exitDx=0;exitDy=0;entryX=0.596;entryY=0.955;entryDx=0;entryDy=0;entryPerimeter=0;" edge="1" parent="1" source="hrWA55zGwtSvdRGhzl9p-3" target="hrWA55zGwtSvdRGhzl9p-6">
          <mxGeometry relative="1" as="geometry">
            <Array as="points">
              <mxPoint x="432" y="120" />
              <mxPoint x="432" y="90" />
            </Array>
          </mxGeometry>
        </mxCell>
        <mxCell id="hrWA55zGwtSvdRGhzl9p-17" value="Test_log" style="rhombus;whiteSpace=wrap;html=1;" vertex="1" parent="1">
          <mxGeometry x="148" y="180" width="80" height="80" as="geometry" />
        </mxCell>
        <mxCell id="hrWA55zGwtSvdRGhzl9p-21" value="test_id" style="ellipse;whiteSpace=wrap;html=1;" vertex="1" parent="1">
          <mxGeometry x="16" y="316" width="72" height="56" as="geometry" />
        </mxCell>
        <mxCell id="hrWA55zGwtSvdRGhzl9p-22" value="test_name" style="ellipse;whiteSpace=wrap;html=1;" vertex="1" parent="1">
          <mxGeometry x="48" y="408" width="72" height="56" as="geometry" />
        </mxCell>
        <mxCell id="hrWA55zGwtSvdRGhzl9p-23" value="date" style="ellipse;whiteSpace=wrap;html=1;" vertex="1" parent="1">
          <mxGeometry x="168" y="440" width="72" height="56" as="geometry" />
        </mxCell>
        <mxCell id="hrWA55zGwtSvdRGhzl9p-24" value="time" style="ellipse;whiteSpace=wrap;html=1;" vertex="1" parent="1">
          <mxGeometry x="256" y="432" width="72" height="56" as="geometry" />
        </mxCell>
        <mxCell id="hrWA55zGwtSvdRGhzl9p-25" value="result" style="ellipse;whiteSpace=wrap;html=1;" vertex="1" parent="1">
          <mxGeometry x="304" y="320" width="72" height="56" as="geometry" />
        </mxCell>
        <mxCell id="hrWA55zGwtSvdRGhzl9p-35" value="doctor_no" style="ellipse;whiteSpace=wrap;html=1;" vertex="1" parent="1">
          <mxGeometry x="520" y="384" width="72" height="56" as="geometry" />
        </mxCell>
        <mxCell id="hrWA55zGwtSvdRGhzl9p-36" value="name" style="ellipse;whiteSpace=wrap;html=1;" vertex="1" parent="1">
          <mxGeometry x="592" y="408" width="72" height="56" as="geometry" />
        </mxCell>
        <mxCell id="hrWA55zGwtSvdRGhzl9p-37" value="specialization" style="ellipse;whiteSpace=wrap;html=1;" vertex="1" parent="1">
          <mxGeometry x="688" y="392" width="88" height="56" as="geometry" />
        </mxCell>
        <mxCell id="hrWA55zGwtSvdRGhzl9p-44" style="edgeStyle=orthogonalEdgeStyle;rounded=0;orthogonalLoop=1;jettySize=auto;html=1;exitX=0.5;exitY=1;exitDx=0;exitDy=0;entryX=0.5;entryY=0;entryDx=0;entryDy=0;" edge="1" parent="1" source="hrWA55zGwtSvdRGhzl9p-42" target="hrWA55zGwtSvdRGhzl9p-1">
          <mxGeometry relative="1" as="geometry" />
        </mxCell>
        <mxCell id="hrWA55zGwtSvdRGhzl9p-42" value="dr_patient" style="rhombus;whiteSpace=wrap;html=1;" vertex="1" parent="1">
          <mxGeometry x="624" y="176" width="80" height="80" as="geometry" />
        </mxCell>
        <mxCell id="hrWA55zGwtSvdRGhzl9p-43" style="edgeStyle=orthogonalEdgeStyle;rounded=0;orthogonalLoop=1;jettySize=auto;html=1;exitX=0.5;exitY=1;exitDx=0;exitDy=0;entryX=0.367;entryY=0.039;entryDx=0;entryDy=0;entryPerimeter=0;" edge="1" parent="1" source="hrWA55zGwtSvdRGhzl9p-17" target="hrWA55zGwtSvdRGhzl9p-2">
          <mxGeometry relative="1" as="geometry" />
        </mxCell>
        <mxCell id="hrWA55zGwtSvdRGhzl9p-50" style="edgeStyle=orthogonalEdgeStyle;rounded=0;orthogonalLoop=1;jettySize=auto;html=1;exitX=1;exitY=0.5;exitDx=0;exitDy=0;entryX=0.25;entryY=0;entryDx=0;entryDy=0;" edge="1" parent="1" source="hrWA55zGwtSvdRGhzl9p-48" target="hrWA55zGwtSvdRGhzl9p-1">
          <mxGeometry relative="1" as="geometry" />
        </mxCell>
        <mxCell id="hrWA55zGwtSvdRGhzl9p-48" value="perform_by" style="rhombus;whiteSpace=wrap;html=1;" vertex="1" parent="1">
          <mxGeometry x="384" y="234" width="80" height="80" as="geometry" />
        </mxCell>
      </root>
    </mxGraphModel>
  </diagram>
</mxfile>
